<svg width="53" height="63" viewBox="0 0 53 63" fill="none" xmlns="http://www.w3.org/2000/svg">
<path d="M27.7075 7.36717C26.9421 6.99864 26.0545 7.55639 26.0545 8.4059V29.3711C26.0545 30.2563 25.0983 30.8113 24.3297 30.3721L20.4056 28.1297C10.7076 22.5562 4.56647 12.348 4.17064 1.1528C4.14814 0.516495 3.63412 0 2.99742 0H1.15286C0.516151 0 0 0.516151 0 1.15286V28.3603C0 37.5831 5.30313 46.1143 13.719 50.1493L19.9444 53.1467L24.5169 55.3482C25.2823 55.7168 26.1698 55.159 26.1698 54.3095V33.3443C26.1698 32.4591 27.1261 31.9041 27.8947 32.3433L31.8188 34.5857C41.5168 40.1592 47.6579 50.3674 48.0537 61.5626C48.0762 62.1989 48.5903 62.7154 49.227 62.7154H51.0715C51.7082 62.7154 52.2244 62.1992 52.2244 61.5625V48.5352V34.3551C52.2244 25.1323 46.9213 16.6011 38.5054 12.5661L27.7075 7.36717Z" fill="#A855F7"/>
</svg>
