<svg width="224" height="64" viewBox="0 0 224 64" fill="none" xmlns="http://www.w3.org/2000/svg">
<path d="M27.7075 8.05174C26.9421 7.68321 26.0545 8.24096 26.0545 9.09047V30.0557C26.0545 30.9409 25.0983 31.4958 24.3297 31.0567L20.4056 28.8143C10.7076 23.2407 4.56647 13.0326 4.17064 1.83737C4.14814 1.20107 3.63412 0.68457 2.99742 0.68457H1.15286C0.516151 0.68457 0 1.20072 0 1.83743V29.0448C0 38.2677 5.30313 46.7988 13.719 50.8338L19.9444 53.8313L24.5169 56.0328C25.2823 56.4013 26.1698 55.8436 26.1698 54.9941V34.0289C26.1698 33.1437 27.1261 32.5887 27.8947 33.0279L31.8188 35.2703C41.5168 40.8438 47.6579 51.0519 48.0537 62.2472C48.0762 62.8835 48.5903 63.4 49.227 63.4H51.0715C51.7082 63.4 52.2244 62.8838 52.2244 62.2471V49.2198V35.0397C52.2244 25.8168 46.9213 17.2857 38.5054 13.2507L27.7075 8.05174Z" fill="#A855F7"/>
<path d="M79.192 26.5965V45.0422H75.2078V30.4332H69.0838V45.0422H65.0995V30.4332H62.2958V26.5965H65.0995V26.2276C65.0995 21.235 67.8787 18.7387 73.437 18.7387C74.7405 18.7387 76.1055 18.8985 77.5319 19.2182V22.8705C76.2284 22.6737 74.8634 22.5754 73.437 22.5754C71.9613 22.5754 70.8669 22.8459 70.1536 23.387C69.4404 23.9281 69.0838 24.8749 69.0838 26.2276V26.5965H79.192ZM81.2199 45.0422V18.1115H85.2042V45.0422H81.2199ZM90.3837 37.5164C90.6788 38.9183 91.3552 40.0004 92.4127 40.7628C93.4703 41.5007 94.7615 41.8696 96.2863 41.8696C98.4014 41.8696 99.9877 41.1072 101.045 39.5823L104.329 41.5007C102.509 44.1814 99.8156 45.5218 96.2494 45.5218C93.2489 45.5218 90.8264 44.6118 88.9818 42.7919C87.1372 40.9473 86.2149 38.6231 86.2149 35.8194C86.2149 33.0648 87.1249 30.7653 88.9449 28.9207C90.7649 27.0515 93.1013 26.1169 95.9543 26.1169C98.6596 26.1169 100.873 27.0638 102.595 28.9576C104.341 30.8513 105.214 33.1509 105.214 35.8563C105.214 36.2744 105.165 36.8277 105.066 37.5164H90.3837ZM90.3468 34.2699H101.193C100.922 32.7697 100.295 31.6384 99.3114 30.8759C98.3522 30.1135 97.2209 29.7323 95.9174 29.7323C94.4417 29.7323 93.212 30.1381 92.2282 30.9497C91.2445 31.7613 90.6173 32.8681 90.3468 34.2699ZM114.271 45.5218C111.787 45.5218 109.672 44.9562 107.926 43.8248C106.204 42.6935 104.999 41.144 104.31 39.1765L107.962 37.0368C108.995 39.9389 111.135 41.39 114.382 41.39C115.98 41.39 117.173 41.0826 117.96 40.4677C118.772 39.8283 119.177 39.0043 119.177 37.996C119.177 36.9384 118.747 36.1391 117.886 35.598C117.025 35.0324 115.501 34.4175 113.312 33.7535C112.082 33.3846 111.086 33.0402 110.323 32.7205C109.561 32.4008 108.749 31.9581 107.889 31.3924C107.052 30.8022 106.425 30.0766 106.007 29.2158C105.589 28.355 105.38 27.3467 105.38 26.1907C105.38 23.9035 106.192 22.0958 107.815 20.7677C109.438 19.415 111.393 18.7387 113.681 18.7387C115.747 18.7387 117.554 19.2428 119.104 20.2512C120.653 21.2596 121.846 22.6492 122.682 24.4199L119.104 26.4859C118.021 24.0756 116.214 22.8705 113.681 22.8705C112.451 22.8705 111.467 23.1656 110.729 23.7559C109.991 24.3216 109.623 25.0963 109.623 26.0801C109.623 27.0392 109.991 27.8017 110.729 28.3673C111.492 28.9084 112.857 29.4864 114.824 30.1012C115.808 30.4209 116.521 30.6669 116.964 30.839C117.431 30.9866 118.071 31.2326 118.882 31.5769C119.718 31.9212 120.346 32.2655 120.764 32.6098C121.182 32.9542 121.625 33.3846 122.092 33.901C122.584 34.4175 122.928 35.0078 123.125 35.6718C123.322 36.3359 123.42 37.086 123.42 37.9222C123.42 40.2587 122.571 42.1155 120.874 43.4928C119.202 44.8455 117.001 45.5218 114.271 45.5218ZM133.987 30.4332H129.412V39.2872C129.412 40.0496 129.584 40.603 129.929 40.9473C130.273 41.267 130.777 41.4515 131.441 41.5007C132.13 41.5253 132.978 41.513 133.987 41.4638V45.0422C130.937 45.4112 128.748 45.1529 127.42 44.2675C126.092 43.3575 125.428 41.6974 125.428 39.2872V30.4332H122.034V26.5965H125.428V22.6123L129.412 21.4317V26.5965H133.987V30.4332ZM142.968 45.5218C140.262 45.5218 137.963 44.5872 136.069 42.7181C134.175 40.8489 133.228 38.5493 133.228 35.8194C133.228 33.0894 134.175 30.7899 136.069 28.9207C137.963 27.0515 140.262 26.1169 142.968 26.1169C145.698 26.1169 147.997 27.0515 149.866 28.9207C151.76 30.7899 152.707 33.0894 152.707 35.8194C152.707 38.5493 151.76 40.8489 149.866 42.7181C147.997 44.5872 145.698 45.5218 142.968 45.5218ZM138.873 39.9881C139.98 41.0949 141.345 41.6482 142.968 41.6482C144.591 41.6482 145.956 41.0949 147.063 39.9881C148.169 38.8814 148.723 37.4918 148.723 35.8194C148.723 34.147 148.169 32.7574 147.063 31.6507C145.956 30.5439 144.591 29.9905 142.968 29.9905C141.345 29.9905 139.98 30.5439 138.873 31.6507C137.766 32.7574 137.213 34.147 137.213 35.8194C137.213 37.4918 137.766 38.8814 138.873 39.9881ZM157.712 29.6954C158.72 27.4081 160.614 26.2645 163.393 26.2645V30.5808C161.868 30.4824 160.54 30.8513 159.409 31.6875C158.277 32.4992 157.712 33.8518 157.712 35.7456V45.0422H153.727V26.5965H157.712V29.6954ZM177.499 26.5965H181.483V45.0422H177.499V42.3861C175.998 44.4766 173.846 45.5218 171.043 45.5218C168.509 45.5218 166.345 44.5872 164.55 42.7181C162.754 40.8243 161.857 38.5248 161.857 35.8194C161.857 33.0894 162.754 30.7899 164.55 28.9207C166.345 27.0515 168.509 26.1169 171.043 26.1169C173.846 26.1169 175.998 27.1499 177.499 29.2158V26.5965ZM167.501 40.0619C168.608 41.1686 169.997 41.722 171.67 41.722C173.342 41.722 174.732 41.1686 175.839 40.0619C176.945 38.9306 177.499 37.5164 177.499 35.8194C177.499 34.1224 176.945 32.7205 175.839 31.6138C174.732 30.4824 173.342 29.9168 171.67 29.9168C169.997 29.9168 168.608 30.4824 167.501 31.6138C166.394 32.7205 165.841 34.1224 165.841 35.8194C165.841 37.5164 166.394 38.9306 167.501 40.0619ZM198.227 26.5965H202.138V44.1937C202.138 46.9975 201.216 49.1495 199.371 50.6497C197.526 52.15 195.288 52.9001 192.657 52.9001C188.402 52.9001 185.488 51.4122 183.913 48.4362L187.344 46.4441C188.304 48.3379 190.099 49.2847 192.731 49.2847C194.452 49.2847 195.793 48.8298 196.752 47.9198C197.735 47.0344 198.227 45.7924 198.227 44.1937V41.9434C196.727 44.0831 194.587 45.1529 191.808 45.1529C189.201 45.1529 187 44.2306 185.205 42.3861C183.409 40.5169 182.512 38.2665 182.512 35.6349C182.512 33.0033 183.409 30.7653 185.205 28.9207C187 27.0515 189.201 26.1169 191.808 26.1169C194.587 26.1169 196.727 27.1868 198.227 29.3265V26.5965ZM188.156 39.7668C189.287 40.8735 190.689 41.4269 192.362 41.4269C194.034 41.4269 195.424 40.8735 196.53 39.7668C197.662 38.66 198.227 37.2827 198.227 35.6349C198.227 33.9871 197.662 32.6098 196.53 31.5031C195.424 30.3963 194.034 29.843 192.362 29.843C190.689 29.843 189.287 30.3963 188.156 31.5031C187.049 32.6098 186.496 33.9871 186.496 35.6349C186.496 37.2827 187.049 38.66 188.156 39.7668ZM207.335 37.5164C207.63 38.9183 208.307 40.0004 209.364 40.7628C210.422 41.5007 211.713 41.8696 213.238 41.8696C215.353 41.8696 216.939 41.1072 217.997 39.5823L221.28 41.5007C219.46 44.1814 216.767 45.5218 213.201 45.5218C210.2 45.5218 207.778 44.6118 205.933 42.7919C204.089 40.9473 203.166 38.6231 203.166 35.8194C203.166 33.0648 204.076 30.7653 205.896 28.9207C207.716 27.0515 210.053 26.1169 212.906 26.1169C215.611 26.1169 217.825 27.0638 219.546 28.9576C221.292 30.8513 222.166 33.1509 222.166 35.8563C222.166 36.2744 222.116 36.8277 222.018 37.5164H207.335ZM207.298 34.2699H218.144C217.874 32.7697 217.247 31.6384 216.263 30.8759C215.304 30.1135 214.172 29.7323 212.869 29.7323C211.393 29.7323 210.164 30.1381 209.18 30.9497C208.196 31.7613 207.569 32.8681 207.298 34.2699Z" fill="#333F4E"/>
</svg>
